name C:\Users\u0101727\Documents\MyRepositories\upper-imu-dc\OpenSim\subject0\MA\ResultsMA\grid_4nodes_9dim\angles_21.mot
datacolumns 10
datarows 23
range 2175.01000000 2175.23000000
endheader 
time	clav_prot	clav_elev	scapula_abduction	scapula_elevation	scapula_upward_rot	scapula_winging	plane_elv	shoulder_elv	axial_rot	
       2175.01000000	        -50.00000000	         20.00000000	        -21.66666667	          3.33333333	         30.00000000	        -20.00000000	        -30.00000000	         26.66666667	         90.00000000	
       2175.02000000	        -38.33333333	         20.00000000	        -21.66666667	          3.33333333	         30.00000000	        -20.00000000	        -30.00000000	         26.66666667	         90.00000000	
       2175.03000000	        -26.66666667	         20.00000000	        -21.66666667	          3.33333333	         30.00000000	        -20.00000000	        -30.00000000	         26.66666667	         90.00000000	
       2175.04000000	        -15.00000000	         20.00000000	        -21.66666667	          3.33333333	         30.00000000	        -20.00000000	        -30.00000000	         26.66666667	         90.00000000	
       2175.05000000	        -50.00000000	        -10.00000000	         -3.33333333	          3.33333333	         30.00000000	        -20.00000000	        -30.00000000	         26.66666667	         90.00000000	
       2175.06000000	        -38.33333333	        -10.00000000	         -3.33333333	          3.33333333	         30.00000000	        -20.00000000	        -30.00000000	         26.66666667	         90.00000000	
       2175.07000000	        -26.66666667	        -10.00000000	         -3.33333333	          3.33333333	         30.00000000	        -20.00000000	        -30.00000000	         26.66666667	         90.00000000	
       2175.08000000	        -15.00000000	        -10.00000000	         -3.33333333	          3.33333333	         30.00000000	        -20.00000000	        -30.00000000	         26.66666667	         90.00000000	
       2175.09000000	        -50.00000000	          0.00000000	         -3.33333333	          3.33333333	         30.00000000	        -20.00000000	        -30.00000000	         26.66666667	         90.00000000	
       2175.10000000	        -38.33333333	          0.00000000	         -3.33333333	          3.33333333	         30.00000000	        -20.00000000	        -30.00000000	         26.66666667	         90.00000000	
       2175.11000000	        -26.66666667	          0.00000000	         -3.33333333	          3.33333333	         30.00000000	        -20.00000000	        -30.00000000	         26.66666667	         90.00000000	
       2175.12000000	        -15.00000000	          0.00000000	         -3.33333333	          3.33333333	         30.00000000	        -20.00000000	        -30.00000000	         26.66666667	         90.00000000	
       2175.13000000	        -50.00000000	         10.00000000	         -3.33333333	          3.33333333	         30.00000000	        -20.00000000	        -30.00000000	         26.66666667	         90.00000000	
       2175.14000000	        -38.33333333	         10.00000000	         -3.33333333	          3.33333333	         30.00000000	        -20.00000000	        -30.00000000	         26.66666667	         90.00000000	
       2175.15000000	        -26.66666667	         10.00000000	         -3.33333333	          3.33333333	         30.00000000	        -20.00000000	        -30.00000000	         26.66666667	         90.00000000	
       2175.16000000	        -15.00000000	         10.00000000	         -3.33333333	          3.33333333	         30.00000000	        -20.00000000	        -30.00000000	         26.66666667	         90.00000000	
       2175.17000000	        -50.00000000	         20.00000000	         -3.33333333	          3.33333333	         30.00000000	        -20.00000000	        -30.00000000	         26.66666667	         90.00000000	
       2175.18000000	        -38.33333333	         20.00000000	         -3.33333333	          3.33333333	         30.00000000	        -20.00000000	        -30.00000000	         26.66666667	         90.00000000	
       2175.19000000	        -26.66666667	         20.00000000	         -3.33333333	          3.33333333	         30.00000000	        -20.00000000	        -30.00000000	         26.66666667	         90.00000000	
       2175.20000000	        -15.00000000	         20.00000000	         -3.33333333	          3.33333333	         30.00000000	        -20.00000000	        -30.00000000	         26.66666667	         90.00000000	
       2175.21000000	        -50.00000000	        -10.00000000	         15.00000000	          3.33333333	         30.00000000	        -20.00000000	        -30.00000000	         26.66666667	         90.00000000	
       2175.22000000	        -38.33333333	        -10.00000000	         15.00000000	          3.33333333	         30.00000000	        -20.00000000	        -30.00000000	         26.66666667	         90.00000000	
       2175.23000000	        -26.66666667	        -10.00000000	         15.00000000	          3.33333333	         30.00000000	        -20.00000000	        -30.00000000	         26.66666667	         90.00000000	
